<svg id="Grupo_88" data-name="Grupo 88" xmlns="http://www.w3.org/2000/svg" xmlns:xlink="http://www.w3.org/1999/xlink" width="88" height="68" viewBox="0 0 88 68">
  <defs>
    <linearGradient id="linear-gradient" x1="0.658" y1="0.643" x2="0.756" y2="1.053" gradientUnits="objectBoundingBox">
      <stop offset="0" stop-color="#ffcc53"/>
      <stop offset="1" stop-color="#fe773b"/>
    </linearGradient>
    <linearGradient id="linear-gradient-2" x1="0.5" y1="0" x2="0.5" y2="1" xlink:href="#linear-gradient"/>
    <linearGradient id="linear-gradient-3" x1="1.165" y1="1.37" x2="-0.231" y2="0" xlink:href="#linear-gradient"/>
    <linearGradient id="linear-gradient-4" x1="0.5" x2="0.5" y2="1" gradientUnits="objectBoundingBox">
      <stop offset="0" stop-color="#ffcc53"/>
      <stop offset="0.926" stop-color="#fe7c3d"/>
      <stop offset="1" stop-color="#fe773b"/>
    </linearGradient>
  </defs>
  <path id="Unión_1" data-name="Unión 1" d="M.014,30.256H0V18.91H2.887C9.162,7.849,24.979,0,43.5,0S77.838,7.849,84.113,18.91H87V30.256h-.014C86.395,46.2,67.152,59,43.5,59S.6,46.2.014,30.256Z" transform="translate(0 9)" fill="url(#linear-gradient)"/>
  <ellipse id="Elipse_4" data-name="Elipse 4" cx="44" cy="29.5" rx="44" ry="29.5" fill="url(#linear-gradient-2)"/>
  <ellipse id="Elipse_5" data-name="Elipse 5" cx="34.5" cy="22.5" rx="34.5" ry="22.5" transform="translate(9 6)" fill="url(#linear-gradient-3)"/>
  <ellipse id="Elipse_7" data-name="Elipse 7" cx="31.5" cy="19" rx="31.5" ry="19" transform="translate(11 10)" fill="url(#linear-gradient-4)"/>
  <path id="Trazado_43" data-name="Trazado 43" d="M27.346,20.21a10.152,10.152,0,0,1-3.859,5.947,19.845,19.845,0,0,1-7.363,3.667L15.321,34l-5.691.9.768-3.991a20.589,20.589,0,0,1-5.889.1A8.631,8.631,0,0,1,0,29.173l5.855-4.935a5.355,5.355,0,0,0,2.846.914A16.866,16.866,0,0,0,12.41,25l.938-4.878-1.726.092q-4.115.218-6.011-1.312-1.858-1.5-1.2-4.937A10.448,10.448,0,0,1,8,8.1a18,18,0,0,1,7.527-3.837L16.169.9,21.86,0l-.633,3.289q5.679-.607,8.572,1.662L24.049,9.8a4.287,4.287,0,0,0-2.354-.741,6.622,6.622,0,0,0-1.305-.045q-.573.018-1.153.074l-.888,4.62,1.809-.07q4.153-.188,5.9,1.185Q28.085,16.367,27.346,20.21Zm-7.8,1.37a1.387,1.387,0,0,0-.334-1.453,2.958,2.958,0,0,0-2.033-.361l-.867,4.509Q19.2,23.392,19.549,21.581Zm-4.2-11.846q-2.878.847-3.255,2.806a1.065,1.065,0,0,0,.4,1.12,3,3,0,0,0,2.019.435Z" transform="translate(38.64 5.062) rotate(30)" fill="#fff"/>
</svg>
